<?xml version="1.0" standalone="no"?>
<svg xmlns:xlink="http://www.w3.org/1999/xlink" id="wave" style="transform:rotate(0deg); transition: 0.3s" viewBox="0 0 1440 490" version="1.1" xmlns="http://www.w3.org/2000/svg"><defs><linearGradient id="sw-gradient-0" x1="0" x2="0" y1="1" y2="0"><stop stop-color="rgba(255, 255, 255, 1)" offset="0%"/><stop stop-color="rgba(255, 255, 255, 1)" offset="100%"/></linearGradient></defs><path style="transform:translate(0, 0px); opacity:1" fill="url(#sw-gradient-0)" d="M0,98L120,106.2C240,114,480,131,720,179.7C960,229,1200,310,1440,294C1680,278,1920,163,2160,106.2C2400,49,2640,49,2880,114.3C3120,180,3360,310,3600,359.3C3840,408,4080,376,4320,351.2C4560,327,4800,310,5040,326.7C5280,343,5520,392,5760,343C6000,294,6240,147,6480,81.7C6720,16,6960,33,7200,57.2C7440,82,7680,114,7920,163.3C8160,212,8400,278,8640,285.8C8880,294,9120,245,9360,261.3C9600,278,9840,359,10080,351.2C10320,343,10560,245,10800,179.7C11040,114,11280,82,11520,98C11760,114,12000,180,12240,212.3C12480,245,12720,245,12960,269.5C13200,294,13440,343,13680,302.2C13920,261,14160,131,14400,122.5C14640,114,14880,229,15120,269.5C15360,310,15600,278,15840,294C16080,310,16320,376,16560,408.3C16800,441,17040,441,17160,441L17280,441L17280,490L17160,490C17040,490,16800,490,16560,490C16320,490,16080,490,15840,490C15600,490,15360,490,15120,490C14880,490,14640,490,14400,490C14160,490,13920,490,13680,490C13440,490,13200,490,12960,490C12720,490,12480,490,12240,490C12000,490,11760,490,11520,490C11280,490,11040,490,10800,490C10560,490,10320,490,10080,490C9840,490,9600,490,9360,490C9120,490,8880,490,8640,490C8400,490,8160,490,7920,490C7680,490,7440,490,7200,490C6960,490,6720,490,6480,490C6240,490,6000,490,5760,490C5520,490,5280,490,5040,490C4800,490,4560,490,4320,490C4080,490,3840,490,3600,490C3360,490,3120,490,2880,490C2640,490,2400,490,2160,490C1920,490,1680,490,1440,490C1200,490,960,490,720,490C480,490,240,490,120,490L0,490Z"/></svg>